<svg width="32" height="32" viewBox="0 0 32 32" fill="none" xmlns="http://www.w3.org/2000/svg">
<path d="M14.2071 22.7071L19.5 17.4142L24.7929 22.7071L26.2071 21.2929L20.9142 16L26.2071 10.7071L24.7929 9.29294L19.5 14.5858L14.2071 9.29294L12.7929 10.7071L18.0858 16L12.7929 21.2929L14.2071 22.7071Z" fill="white"/>
<path d="M29.5 4H12.1652C11.9615 4.00034 11.76 4.04201 11.5729 4.1225C11.3857 4.20298 11.2169 4.32061 11.0765 4.46825L1 15.1014V16.8986L11.0765 27.5317C11.2169 27.6794 11.3857 27.797 11.5729 27.8775C11.76 27.958 11.9615 27.9997 12.1652 28H29.5C29.8977 27.9995 30.2789 27.8414 30.5601 27.5601C30.8414 27.2789 30.9995 26.8977 31 26.5V5.5C30.9995 5.10232 30.8414 4.72106 30.5601 4.43985C30.2789 4.15865 29.8977 4.00046 29.5 4V4ZM29 26H12.3802L3 16.1014V15.8986L12.3802 6H29V26Z" fill="white"/>
</svg>
